<?xml version="1.0" encoding="utf-8"?>
<!-- Generator: Adobe Illustrator 22.0.1, SVG Export Plug-In . SVG Version: 6.00 Build 0)  -->
<svg version="1.1" xmlns="http://www.w3.org/2000/svg" xmlns:xlink="http://www.w3.org/1999/xlink" x="0px" y="0px"
	 viewBox="0 0 18 18" style="enable-background:new 0 0 18 18;" xml:space="preserve">
<style type="text/css">
	.st0{display:none;}
	.st1{display:inline;}
	.st2{fill:none;stroke:#000000;stroke-miterlimit:10;}
</style>
<g id="Layer_1">
	<g class="st0">
		<path class="st1" d="M17.5,3.7v12.4H1.1V3.7H17.5 M18,1.9H0.6c-0.7,0-1.3,0.6-1.3,1.3v13.4c0,0.7,0.6,1.3,1.3,1.3H18
			c0.7,0,1.3-0.6,1.3-1.3V3.2C19.3,2.5,18.7,1.9,18,1.9L18,1.9z"/>
	</g>
	<path class="st2" d="M0.6,5l8.3,5.7L17.3,5"/>
	<g>
		<path d="M16.9,4.5v12.4H1V4.5H16.9 M17.1,3.5H0.8C0.4,3.5,0,3.9,0,4.3V17c0,0.5,0.4,0.9,0.8,0.9h16.2c0.5,0,0.8-0.4,0.8-0.9V4.3
			C17.9,3.9,17.6,3.5,17.1,3.5L17.1,3.5z"/>
	</g>
</g>
<g id="Layer_2">
</g>
<g id="Layer_3">
</g>
</svg>
