<?xml version="1.0" encoding="utf-8"?>
<!-- Generator: Adobe Illustrator 22.0.1, SVG Export Plug-In . SVG Version: 6.00 Build 0)  -->
<svg version="1.1" xmlns="http://www.w3.org/2000/svg" xmlns:xlink="http://www.w3.org/1999/xlink" x="0px" y="0px"
	 viewBox="0 0 18 18" style="enable-background:new 0 0 18 18;" xml:space="preserve">
<style type="text/css">
	.st0{display:none;}
	.st1{display:inline;}
	.st2{fill:none;stroke:#000000;stroke-miterlimit:10;}
</style>
<g id="Layer_1">
	<g class="st0">
		<path class="st1" d="M17.5,3.7v12.4H1.1V3.7H17.5 M18,1.9H0.6c-0.7,0-1.3,0.6-1.3,1.3v13.4c0,0.7,0.6,1.3,1.3,1.3H18
			c0.7,0,1.3-0.6,1.3-1.3V3.2C19.3,2.5,18.7,1.9,18,1.9L18,1.9z"/>
	</g>
	<g>
		<path d="M17.4,10.5C17.4,10.5,17.4,10.6,17.4,10.5L17.4,10.5C17.3,10.4,17.3,10.5,17.4,10.5c0.1-0.5,0.1-1,0.1-1.5
			c0-1.2-0.2-2.3-0.7-3.3c-0.4-1-1-1.9-1.8-2.7c-0.8-0.8-1.7-1.4-2.7-1.8c-1-0.4-2.2-0.7-3.3-0.7c-0.5,0-1.1,0.1-1.6,0.2
			c0,0,0,0,0,0c0,0,0.1,0,0.1,0l-0.2,0c0,0,0.1,0,0.1,0C6.7,0.2,5.9,0,5,0C3.7,0,2.4,0.5,1.5,1.5C0.5,2.4,0,3.7,0,5
			c0,0.9,0.2,1.7,0.6,2.4c0,0,0-0.1,0-0.1l0,0.2c0,0,0-0.1,0-0.1C0.5,8,0.5,8.5,0.5,9c0,1.2,0.2,2.3,0.7,3.3c0.4,1,1,1.9,1.8,2.7
			c0.8,0.8,1.7,1.4,2.7,1.8c1,0.4,2.2,0.7,3.3,0.7c0.5,0,1,0,1.5-0.1c0,0-0.1,0-0.1,0l0.2,0c0,0-0.1,0-0.1,0
			c0.8,0.4,1.6,0.7,2.5,0.7c1.3,0,2.6-0.5,3.6-1.5c1-1,1.5-2.2,1.5-3.6C18,12.1,17.8,11.3,17.4,10.5L17.4,10.5z M9,14.2
			c-3,0-4.4-1.5-4.4-2.6c0-0.6,0.4-1,1-1c1.3,0,1,1.9,3.4,1.9c1.2,0,1.9-0.7,1.9-1.4c0-0.4-0.2-0.9-1-1.1L7.3,9.4
			C5.1,8.8,4.7,7.6,4.7,6.5c0-2.3,2.1-3.1,4.2-3.1c1.9,0,4.1,1,4.1,2.4c0,0.6-0.5,0.9-1.1,0.9c-1.1,0-0.9-1.5-3.1-1.5
			C7.6,5.2,7,5.7,7,6.4c0,0.7,0.9,0.9,1.6,1.1l2,0.4c2.2,0.5,2.7,1.8,2.7,3C13.3,12.8,11.9,14.2,9,14.2z M10.4,17.3
			C10.4,17.3,10.5,17.3,10.4,17.3c0.1,0,0.2,0,0.2,0L10.4,17.3z M17.3,10.6C17.4,10.6,17.4,10.5,17.3,10.6c0-0.1,0-0.2,0-0.2
			L17.3,10.6z M0.6,7.4C0.6,7.4,0.6,7.5,0.6,7.4c0,0.1,0,0.2,0,0.2L0.6,7.4z M7.5,0.6C7.5,0.6,7.4,0.6,7.5,0.6c-0.1,0-0.1,0-0.2,0
			L7.5,0.6z"/>
	</g>
</g>
<g id="Layer_2">
</g>
<g id="Layer_3">
</g>
</svg>
